<svg width="231" height="82" viewBox="0 0 231 82" fill="none" xmlns="http://www.w3.org/2000/svg">
<path d="M28.312 0.943996C32.6 0.943996 36.504 1.488 40.024 2.576C43.544 3.6 46.424 5.136 48.664 7.184C52.696 10.832 55.512 14.832 57.112 19.184C58.776 23.472 59.608 28.976 59.608 35.696C59.608 37.872 58.584 41.52 56.536 46.64C55.384 48.88 54.168 50.64 52.888 51.92C51.672 53.2 49.784 54.736 47.224 56.528C49.4 59.984 51.096 62.352 52.312 63.632C53.592 64.976 55.032 65.648 56.632 65.648C57.144 65.648 57.528 65.616 57.784 65.552C57.976 65.488 58.264 65.456 58.648 65.456C59.544 65.456 60.248 65.744 60.76 66.32C61.336 66.96 61.624 67.696 61.624 68.528C61.624 68.976 61.496 69.456 61.24 69.968C60.984 70.48 60.632 70.864 60.184 71.12C58.968 71.888 57.912 72.368 57.016 72.56C56.12 72.816 54.488 72.944 52.12 72.944C49.624 72.944 47.384 71.824 45.4 69.584C43.48 67.408 41.464 64.368 39.352 60.464C36.6 61.488 33.816 62 31 62C18.648 62 9.848 57.776 4.6 49.328C3.128 46.96 1.976 44.496 1.144 41.936C0.376 39.376 -0.0079999 36.88 -0.0079999 34.448C-0.0079999 27.92 1.144 22.224 3.448 17.36C5.816 12.496 9.08 8.752 13.24 6.128C15.672 4.592 18.232 3.344 20.92 2.384C23.672 1.424 26.136 0.943996 28.312 0.943996ZM9.784 34.448C9.784 36.816 10.136 38.928 10.84 40.784C11.608 42.576 12.696 44.272 14.104 45.872C15.256 43.44 16.888 41.616 19 40.4C21.112 39.184 23.608 38.576 26.488 38.576C29.496 38.576 32.056 39.12 34.168 40.208C36.28 41.296 37.848 42.448 38.872 43.664C39.896 44.816 41.176 46.48 42.712 48.656C47.256 45.008 49.528 39.856 49.528 33.2C49.528 28.208 48.984 24.336 47.896 21.584C46.872 18.832 44.92 16.272 42.04 13.904C40.504 12.624 38.584 11.664 36.28 11.024C34.04 10.384 31.64 10.064 29.08 10.064C25.176 10.064 21.752 11.28 18.808 13.712C15.864 16.08 13.624 19.152 12.088 22.928C10.552 26.64 9.784 30.48 9.784 34.448ZM28.216 45.872C26.424 45.872 24.76 46.256 23.224 47.024C21.688 47.728 20.632 49.072 20.056 51.056L21.304 52.016C22.648 52.528 23.832 52.912 24.856 53.168C25.88 53.36 27.032 53.456 28.312 53.456C30.424 53.456 32.696 53.104 35.128 52.4C33.976 50.288 32.824 48.688 31.672 47.6C30.584 46.448 29.432 45.872 28.216 45.872ZM67.8265 29.648C67.3145 29.648 66.8345 29.456 66.3865 29.072C66.0025 28.624 65.8105 28.112 65.8105 27.536C65.8105 26.064 66.4505 24.688 67.7305 23.408C68.1145 23.216 68.8825 22.896 70.0345 22.448C71.1865 22 72.2105 21.776 73.1065 21.776C75.5385 21.776 77.5225 22.448 79.0585 23.792C80.5945 25.072 81.3625 26.928 81.3625 29.36C81.3625 30.064 81.2345 31.568 80.9785 33.872C80.7225 36.56 80.5945 38.64 80.5945 40.112C80.5945 44.592 81.2025 48.208 82.4185 50.96C82.8665 51.856 83.5705 52.56 84.5305 53.072C85.4905 53.584 86.3545 53.84 87.1225 53.84C88.9785 53.84 90.4825 53.52 91.6345 52.88C92.7865 52.24 94.0345 51.216 95.3785 49.808C96.7225 48.4 97.5865 46.8 97.9705 45.008C98.4185 43.216 98.7385 40.752 98.9305 37.616C99.0585 35.568 99.1865 34.064 99.3145 33.104C99.6345 30.032 99.7945 27.408 99.7945 25.232C99.7945 23.824 100.179 22.672 100.947 21.776C101.715 20.816 102.771 20.336 104.115 20.336C104.883 20.336 105.747 20.592 106.707 21.104C107.731 21.552 108.403 22.096 108.723 22.736C109.107 23.376 109.299 24.432 109.299 25.904C109.299 26.672 109.203 27.408 109.011 28.112C108.563 29.712 108.339 31.632 108.339 33.872L108.435 38.864C108.435 43.408 108.755 46.768 109.395 48.944C109.715 49.968 110.163 51.024 110.739 52.112C111.315 53.136 111.859 54 112.371 54.704C113.651 56.112 114.483 57.104 114.867 57.68C115.251 58.192 115.443 58.704 115.443 59.216C115.443 59.984 115.059 60.72 114.291 61.424C113.587 62.064 112.819 62.384 111.987 62.384C109.619 62.384 107.571 61.584 105.843 59.984C104.115 58.384 102.835 56.304 102.003 53.744C99.8265 56.24 97.8105 58.256 95.9545 59.792C94.6745 60.688 93.1065 61.36 91.2505 61.808C89.3945 62.192 87.5385 62.384 85.6825 62.384C83.1865 62.384 80.6585 61.36 78.0985 59.312C75.5385 57.264 73.8105 54.896 72.9145 52.208C72.8505 52.08 72.6585 51.568 72.3385 50.672C72.0825 49.776 71.9545 48.432 71.9545 46.64C71.9545 44.272 72.0825 41.296 72.3385 37.712C72.5305 35.408 72.6265 33.296 72.6265 31.376C72.6265 30.8 72.4025 30.32 71.9545 29.936C71.5705 29.552 71.1225 29.36 70.6105 29.36C70.2265 29.36 69.7785 29.424 69.2665 29.552C68.8185 29.616 68.3385 29.648 67.8265 29.648ZM127.609 0.367998C129.849 0.559996 131.801 1.168 133.465 2.192C135.129 3.152 135.961 4.624 135.961 6.608C135.961 8.08 135.257 9.264 133.849 10.16C132.505 10.992 130.873 11.408 128.953 11.408C127.097 11.408 125.817 10.928 125.113 9.96799C124.409 9.008 124.057 8.016 124.057 6.992C124.057 5.072 124.249 3.472 124.633 2.192C125.081 0.911999 126.073 0.303999 127.609 0.367998ZM135.289 42.896V45.68C135.289 48.176 135.353 50.544 135.481 52.784C135.673 54.96 135.897 57.168 136.153 59.408C136.153 60.176 135.705 60.88 134.809 61.52C133.913 62.096 133.081 62.384 132.313 62.384C131.097 62.384 129.849 62.16 128.569 61.712C127.353 61.2 126.617 60.592 126.361 59.888C125.977 57.84 125.785 56.016 125.785 54.416C125.785 49.168 125.625 43.28 125.305 36.752C125.049 30.992 124.921 26.96 124.921 24.656C124.921 23.504 125.497 22.512 126.649 21.68C127.801 20.848 129.017 20.432 130.297 20.432C132.153 20.432 133.433 20.848 134.137 21.68C134.905 22.512 135.289 23.824 135.289 25.616V42.896ZM180.492 29.168C179.148 31.472 177.324 33.84 175.02 36.272C172.716 38.704 169.772 41.584 166.188 44.912C162.796 48.112 160.908 49.936 160.524 50.384L157.26 53.36C158.54 53.616 160.94 53.744 164.46 53.744C165.868 53.744 167.916 53.488 170.604 52.976C173.164 52.464 175.052 52.208 176.268 52.208C177.292 52.208 178.444 52.368 179.724 52.688C181.068 53.008 182.316 53.488 183.468 54.128C184.044 54.384 184.524 54.896 184.908 55.664C185.292 56.368 185.484 57.04 185.484 57.68C185.484 58.512 185.196 59.44 184.62 60.464C184.044 61.488 183.372 62 182.604 62C181.9 62 180.972 61.872 179.82 61.616C178.092 61.296 176.876 61.136 176.172 61.136C173.932 61.136 170.956 61.296 167.244 61.616C162.124 62 158.348 62.192 155.916 62.192C152.844 62.192 150.412 61.808 148.62 61.04C146.892 60.272 146.028 58.832 146.028 56.72C146.028 55.12 146.828 53.296 148.428 51.248C150.028 49.136 151.98 46.928 154.284 44.624L155.628 43.184C156.652 42.16 158.38 40.624 160.812 38.576C163.244 36.464 165.1 34.8 166.38 33.584C167.66 32.304 168.716 30.96 169.548 29.552L154.188 29.648C151.692 29.648 149.836 29.36 148.62 28.784C147.468 28.208 146.892 27.12 146.892 25.52C146.892 24.624 147.212 23.792 147.852 23.024C148.492 22.192 149.324 21.68 150.348 21.488C152.652 21.168 157.356 21.008 164.46 21.008C171.564 21.008 176.46 21.36 179.148 22.064C179.852 22.32 180.396 22.8 180.78 23.504C181.228 24.144 181.452 24.816 181.452 25.52C181.452 26.672 181.132 27.888 180.492 29.168ZM202.271 81.584C198.751 81.584 196.191 80.944 194.591 79.664C193.055 78.448 192.287 77.104 192.287 75.632C192.287 73.392 193.343 72.272 195.455 72.272C196.095 72.272 196.927 72.464 197.951 72.848C198.975 73.296 199.935 73.52 200.831 73.52C202.239 73.52 203.391 72.592 204.287 70.736C205.183 68.88 206.079 65.872 206.975 61.712C204.991 59.408 202.559 55.76 199.679 50.768C196.863 45.776 194.431 40.88 192.383 36.08C190.335 31.216 189.311 27.76 189.311 25.712C189.311 24.112 189.855 22.928 190.943 22.16C192.095 21.392 193.407 21.008 194.879 21.008C196.031 21.008 196.927 21.232 197.567 21.68C198.207 22.064 198.655 22.8 198.911 23.888C200.447 29.328 202.079 34.096 203.807 38.192C205.599 42.288 207.871 46.736 210.623 51.536C211.711 49.04 213.151 44.784 214.943 38.768C216.927 32.048 218.591 27.28 219.935 24.464C220.511 23.312 221.215 22.384 222.047 21.68C222.943 20.976 223.935 20.624 225.023 20.624C226.111 20.624 227.263 21.04 228.479 21.872C229.759 22.64 230.399 23.568 230.399 24.656C230.399 25.296 230.175 26.064 229.727 26.96C227.231 32.72 225.023 38.16 223.103 43.28C221.247 48.336 219.455 53.904 217.727 59.984C216.703 63.376 215.615 66.608 214.463 69.68C213.375 72.752 212.607 74.64 212.159 75.344C210.879 77.136 209.439 78.608 207.839 79.76C206.239 80.976 204.383 81.584 202.271 81.584Z" fill="#F43F5E"/>
</svg>
